<svg xmlns="http://www.w3.org/2000/svg" viewBox="0 0 1920 1080" role="img" aria-label="Quiet chess study background with correct empty boards">
  <defs>
    <linearGradient id="wall" x1="0" x2="0" y1="0" y2="1">
      <stop offset="0" stop-color="#f0e7d8"/>
      <stop offset="0.58" stop-color="#dfd0bb"/>
      <stop offset="1" stop-color="#c4a98b"/>
    </linearGradient>
    <linearGradient id="wood" x1="0" x2="1" y1="0" y2="1">
      <stop offset="0" stop-color="#9a6b42"/>
      <stop offset="0.52" stop-color="#7a4f31"/>
      <stop offset="1" stop-color="#57371f"/>
    </linearGradient>
    <linearGradient id="felt" x1="0" x2="1" y1="0" y2="1">
      <stop offset="0" stop-color="#2a604d"/>
      <stop offset="1" stop-color="#173d31"/>
    </linearGradient>
    <radialGradient id="window-light" cx="18%" cy="16%" r="70%">
      <stop offset="0" stop-color="#fff8e8" stop-opacity="0.9"/>
      <stop offset="0.55" stop-color="#fff8e8" stop-opacity="0.22"/>
      <stop offset="1" stop-color="#fff8e8" stop-opacity="0"/>
    </radialGradient>
    <filter id="soft-shadow" x="-20%" y="-20%" width="140%" height="140%">
      <feDropShadow dx="0" dy="18" stdDeviation="18" flood-color="#3b2718" flood-opacity="0.2"/>
    </filter>

    <symbol id="empty-board" viewBox="0 0 240 240">
      <rect width="240" height="240" rx="3" fill="#7f5536"/>
      <rect x="10" y="10" width="220" height="220" fill="#ead0a9" stroke="#65452c" stroke-width="4"/>
      <g fill="#9d6c45">
        <rect x="10" y="10" width="27.5" height="27.5"/><rect x="65" y="10" width="27.5" height="27.5"/><rect x="120" y="10" width="27.5" height="27.5"/><rect x="175" y="10" width="27.5" height="27.5"/>
        <rect x="37.5" y="37.5" width="27.5" height="27.5"/><rect x="92.5" y="37.5" width="27.5" height="27.5"/><rect x="147.5" y="37.5" width="27.5" height="27.5"/><rect x="202.5" y="37.5" width="27.5" height="27.5"/>
        <rect x="10" y="65" width="27.5" height="27.5"/><rect x="65" y="65" width="27.5" height="27.5"/><rect x="120" y="65" width="27.5" height="27.5"/><rect x="175" y="65" width="27.5" height="27.5"/>
        <rect x="37.5" y="92.5" width="27.5" height="27.5"/><rect x="92.5" y="92.5" width="27.5" height="27.5"/><rect x="147.5" y="92.5" width="27.5" height="27.5"/><rect x="202.5" y="92.5" width="27.5" height="27.5"/>
        <rect x="10" y="120" width="27.5" height="27.5"/><rect x="65" y="120" width="27.5" height="27.5"/><rect x="120" y="120" width="27.5" height="27.5"/><rect x="175" y="120" width="27.5" height="27.5"/>
        <rect x="37.5" y="147.5" width="27.5" height="27.5"/><rect x="92.5" y="147.5" width="27.5" height="27.5"/><rect x="147.5" y="147.5" width="27.5" height="27.5"/><rect x="202.5" y="147.5" width="27.5" height="27.5"/>
        <rect x="10" y="175" width="27.5" height="27.5"/><rect x="65" y="175" width="27.5" height="27.5"/><rect x="120" y="175" width="27.5" height="27.5"/><rect x="175" y="175" width="27.5" height="27.5"/>
        <rect x="37.5" y="202.5" width="27.5" height="27.5"/><rect x="92.5" y="202.5" width="27.5" height="27.5"/><rect x="147.5" y="202.5" width="27.5" height="27.5"/><rect x="202.5" y="202.5" width="27.5" height="27.5"/>
      </g>
    </symbol>
  </defs>

  <rect width="1920" height="1080" fill="url(#wall)"/>
  <rect width="1920" height="1080" fill="url(#window-light)"/>

  <g opacity="0.6">
    <rect x="90" y="70" width="260" height="460" fill="#fff7e9" stroke="#ad8d65" stroke-width="10"/>
    <rect x="405" y="70" width="260" height="460" fill="#fff7e9" stroke="#ad8d65" stroke-width="10"/>
    <path d="M220 70v460M90 300h260M535 70v460M405 300h260" stroke="#c2a887" stroke-width="7"/>
    <rect x="115" y="95" width="210" height="410" fill="#ffffff" opacity="0.18"/>
    <rect x="430" y="95" width="210" height="410" fill="#ffffff" opacity="0.16"/>
  </g>

  <rect x="0" y="535" width="1920" height="545" fill="#7b5638" opacity="0.28"/>
  <rect x="0" y="530" width="1920" height="38" fill="#5c3a23" opacity="0.26"/>

  <g opacity="0.8" filter="url(#soft-shadow)">
    <rect x="790" y="130" width="210" height="520" fill="url(#wood)"/>
    <rect x="820" y="166" width="150" height="82" fill="#261d16" opacity="0.56"/>
    <rect x="820" y="278" width="150" height="82" fill="#261d16" opacity="0.52"/>
    <rect x="820" y="390" width="150" height="82" fill="#261d16" opacity="0.52"/>
    <rect x="820" y="502" width="150" height="82" fill="#261d16" opacity="0.48"/>
    <g fill="#caa46d" opacity="0.68">
      <rect x="838" y="181" width="11" height="55"/><rect x="860" y="174" width="12" height="62"/><rect x="886" y="187" width="10" height="49"/><rect x="912" y="178" width="13" height="58"/><rect x="942" y="184" width="10" height="52"/>
      <rect x="838" y="292" width="12" height="56"/><rect x="866" y="286" width="10" height="62"/><rect x="894" y="299" width="12" height="49"/><rect x="924" y="291" width="11" height="57"/>
      <rect x="846" y="405" width="12" height="54"/><rect x="874" y="398" width="11" height="61"/><rect x="905" y="410" width="12" height="49"/><rect x="936" y="404" width="10" height="55"/>
    </g>
  </g>

  <g opacity="0.62" filter="url(#soft-shadow)">
    <rect x="1245" y="110" width="470" height="470" fill="#264f40"/>
    <rect x="1305" y="170" width="350" height="350" fill="#d7b98e" opacity="0.95"/>
    <g transform="translate(1324 189) scale(1.3)">
      <use href="#empty-board" width="240" height="240"/>
    </g>
  </g>

  <g filter="url(#soft-shadow)" opacity="0.92">
    <path d="M120 720l520-70l95 246l-610 62z" fill="url(#felt)"/>
    <use href="#empty-board" x="330" y="690" width="225" height="225" opacity="0.92"/>
    <rect x="210" y="750" width="96" height="42" rx="7" fill="#1f1d19" opacity="0.72"/>
    <rect x="575" y="740" width="78" height="104" fill="#fff8ec" opacity="0.68"/>
  </g>

  <g filter="url(#soft-shadow)" opacity="0.88">
    <path d="M760 635l520 8l-12 302l-575-18z" fill="url(#felt)"/>
    <use href="#empty-board" x="925" y="675" width="240" height="240" opacity="0.9"/>
    <rect x="805" y="720" width="104" height="48" rx="7" fill="#1f1d19" opacity="0.72"/>
    <rect x="1188" y="722" width="82" height="112" fill="#fff8ec" opacity="0.68"/>
  </g>

  <g filter="url(#soft-shadow)" opacity="0.82">
    <path d="M1365 730l420-58l88 232l-505 58z" fill="url(#felt)"/>
    <use href="#empty-board" x="1505" y="715" width="210" height="210" opacity="0.88"/>
    <rect x="1410" y="765" width="92" height="40" rx="7" fill="#1f1d19" opacity="0.68"/>
    <rect x="1725" y="758" width="74" height="95" fill="#fff8ec" opacity="0.62"/>
  </g>

  <g opacity="0.12" stroke="#4f3521" stroke-width="3">
    <path d="M0 905h1920M0 980h1920M0 1055h1920"/>
    <path d="M120 535v545M300 535v545M480 535v545M660 535v545M840 535v545M1020 535v545M1200 535v545M1380 535v545M1560 535v545M1740 535v545"/>
  </g>

  <rect width="1920" height="1080" fill="#f4f0e7" opacity="0.08"/>
</svg>
